<svg xmlns="http://www.w3.org/2000/svg" viewBox="0 0 64 64">
  <rect width="64" height="64" rx="14" fill="#ffffff" />
  <g fill="#029f9c">
    <ellipse cx="22" cy="20" rx="6" ry="8" transform="rotate(-24 22 20)" />
    <ellipse cx="31" cy="16" rx="6" ry="8" transform="rotate(-8 31 16)" />
    <ellipse cx="41" cy="16" rx="6" ry="8" transform="rotate(10 41 16)" />
    <ellipse cx="50" cy="20" rx="6" ry="8" transform="rotate(24 50 20)" />
    <path d="M33.8 27.5c-8.9 0-16.2 6.8-16.2 15.1 0 4.5 3 8.2 7.3 8.2 2.4 0 3.7-1.1 5.6-2.4 1-.7 2.3-1.5 3.3-1.5s2.3.8 3.3 1.5c1.9 1.3 3.2 2.4 5.6 2.4 4.3 0 7.3-3.7 7.3-8.2 0-8.3-7.3-15.1-16.2-15.1Z" />
  </g>
</svg>
